<svg xmlns="http://www.w3.org/2000/svg" width="1280" height="720" viewBox="0 0 1280 720" role="img" aria-label="MeetingReferee dashboard preview">
  <defs>
    <linearGradient id="bg" x1="0" x2="0" y1="0" y2="1">
      <stop offset="0%" stop-color="#0a1020" />
      <stop offset="100%" stop-color="#101a2f" />
    </linearGradient>
    <linearGradient id="panel" x1="0" x2="1" y1="0" y2="1">
      <stop offset="0%" stop-color="#1a2944" />
      <stop offset="100%" stop-color="#19263e" />
    </linearGradient>
  </defs>

  <rect width="1280" height="720" fill="url(#bg)" />

  <rect x="28" y="24" width="1224" height="72" rx="12" fill="#1a2740" stroke="#32476f" />
  <circle cx="64" cy="60" r="7" fill="#ef4444" />
  <text x="82" y="65" fill="#f5f8ff" font-family="sans-serif" font-size="18" font-weight="700">회의 진행 중</text>
  <text x="1020" y="65" fill="#d9e5ff" font-family="monospace" font-size="24">00:37</text>
  <rect x="1118" y="40" width="108" height="40" rx="10" fill="#ef4444" />
  <text x="1145" y="65" fill="#ffffff" font-family="sans-serif" font-size="15" font-weight="700">회의 종료</text>

  <rect x="28" y="112" width="916" height="84" rx="12" fill="url(#panel)" stroke="#32476f" />
  <text x="52" y="148" fill="#f5f8ff" font-family="sans-serif" font-size="28" font-weight="700">주간 스프린트 회의 - 실시간 모니터링</text>
  <text x="52" y="176" fill="#9fb4da" font-family="sans-serif" font-size="16">실시간 자막: 우선순위가 높은 이슈부터 순서대로 정리하겠습니다.</text>

  <rect x="28" y="210" width="916" height="186" rx="12" fill="url(#panel)" stroke="#32476f" />
  <rect x="50" y="232" width="210" height="144" rx="10" fill="#11203a" stroke="#3f65ad" />
  <rect x="278" y="232" width="210" height="144" rx="10" fill="#11203a" stroke="#3a4f77" />
  <rect x="506" y="232" width="210" height="144" rx="10" fill="#11203a" stroke="#3a4f77" />
  <rect x="734" y="232" width="188" height="144" rx="10" fill="#11203a" stroke="#3a4f77" />
  <text x="64" y="264" fill="#7ab0ff" font-family="sans-serif" font-size="16" font-weight="700">민지</text>
  <text x="64" y="292" fill="#d8e6ff" font-family="sans-serif" font-size="14">지분 38% · 턴 12회</text>
  <text x="64" y="318" fill="#9db3dc" font-family="sans-serif" font-size="13">총 발언 188.3초</text>
  <text x="292" y="264" fill="#63d9b5" font-family="sans-serif" font-size="16" font-weight="700">준호</text>
  <text x="520" y="264" fill="#ffc161" font-family="sans-serif" font-size="16" font-weight="700">서연</text>
  <text x="748" y="264" fill="#dba6ff" font-family="sans-serif" font-size="16" font-weight="700">도윤</text>

  <rect x="28" y="410" width="452" height="282" rx="12" fill="url(#panel)" stroke="#32476f" />
  <rect x="492" y="410" width="452" height="282" rx="12" fill="url(#panel)" stroke="#32476f" />
  <text x="52" y="446" fill="#f5f8ff" font-family="sans-serif" font-size="18" font-weight="700">실시간 발화</text>
  <text x="516" y="446" fill="#f5f8ff" font-family="sans-serif" font-size="18" font-weight="700">이벤트 타임라인</text>

  <rect x="52" y="460" width="404" height="52" rx="8" fill="#11203a" stroke="#2f4266" />
  <text x="66" y="482" fill="#7ab0ff" font-family="sans-serif" font-size="14" font-weight="700">민지 · 2.8초</text>
  <text x="66" y="502" fill="#dbe7ff" font-family="sans-serif" font-size="13">지금 이슈는 범위를 벗어난 것 같아서 정리하고 넘어갈게요.</text>

  <rect x="516" y="460" width="404" height="52" rx="8" fill="#11203a" stroke="#2f4266" />
  <text x="530" y="482" fill="#ffcc7a" font-family="sans-serif" font-size="13" font-weight="700">주의</text>
  <text x="530" y="502" fill="#dbe7ff" font-family="sans-serif" font-size="13">침묵 참여자 감지: 도윤</text>

  <rect x="960" y="112" width="292" height="580" rx="12" fill="url(#panel)" stroke="#32476f" />
  <text x="984" y="148" fill="#f5f8ff" font-family="sans-serif" font-size="18" font-weight="700">실시간 발언 비율</text>

  <text x="984" y="186" fill="#7ab0ff" font-family="sans-serif" font-size="13" font-weight="700">민지</text>
  <rect x="984" y="194" width="240" height="8" rx="4" fill="#2f4266" />
  <rect x="984" y="194" width="90" height="8" rx="4" fill="#60a5fa" />

  <text x="984" y="232" fill="#63d9b5" font-family="sans-serif" font-size="13" font-weight="700">준호</text>
  <rect x="984" y="240" width="240" height="8" rx="4" fill="#2f4266" />
  <rect x="984" y="240" width="72" height="8" rx="4" fill="#34d399" />

  <text x="984" y="278" fill="#ffc161" font-family="sans-serif" font-size="13" font-weight="700">서연</text>
  <rect x="984" y="286" width="240" height="8" rx="4" fill="#2f4266" />
  <rect x="984" y="286" width="58" height="8" rx="4" fill="#f59e0b" />

  <text x="984" y="324" fill="#dba6ff" font-family="sans-serif" font-size="13" font-weight="700">도윤</text>
  <rect x="984" y="332" width="240" height="8" rx="4" fill="#2f4266" />
  <rect x="984" y="332" width="20" height="8" rx="4" fill="#a78bfa" />

  <rect x="984" y="384" width="240" height="160" rx="10" fill="#11203a" stroke="#2f4266" />
  <text x="1008" y="420" fill="#f5f8ff" font-family="sans-serif" font-size="18" font-weight="700">균형 지수</text>
  <text x="1008" y="492" fill="#4ade80" font-family="sans-serif" font-size="56" font-weight="700">78</text>
</svg>
